<?xml version="1.0" encoding="utf-8"?>
<!-- Generator: Adobe Illustrator 17.0.0, SVG Export Plug-In . SVG Version: 6.00 Build 0)  -->
<!DOCTYPE svg PUBLIC "-//W3C//DTD SVG 1.1//EN" "http://www.w3.org/Graphics/SVG/1.1/DTD/svg11.dtd">
<svg version="1.1" id="Layer_1" xmlns="http://www.w3.org/2000/svg" xmlns:xlink="http://www.w3.org/1999/xlink" x="0px" y="0px"
	 width="200px" height="90px" viewBox="0 0 200 90" enable-background="new 0 0 200 90" xml:space="preserve">
<g>
	<path fill="#fff" d="M106.296,30.782l-9.179,8.16c0,0-10.234-4.624-17.879-1.435c0,0-1.926,1.144,1.024,1.927
		c0,0,2.529,0.422,5.96,0.783c0,0,13.123,1.083,15.29,5.116c0,0,2.744-14.62,33.365-17.213c0,0,29.882-1.588,36.588,7.915
		l-23.057,3.912c0,0-6.776-5.59-19.073,0c0,0-6.079,3.005-4.332,8.034c0,0,1.676,4.332,9.712,3.843
		c8.035-0.489,10.27-2.236,10.62-2.795h-10.759l2.514-7.406h35.772c0,0-1.19,8.639-10.739,12.837c0,0-14.869,7.39-36.3,6.09
		c0,0-20.085-1.152-24.036-10.042c0,0-3.046,8.643-27.74,10.207c0,0-15.063,0.412-26.999-2.963l10.042-8.972
		c0,0,9.877,5.268,19.591,2.717c0,0,2.305-0.659,1.399-2.059c0,0-1.399-0.823-4.527-0.823c0,0-28.069-1.153-15.64-12.923
		c0,0,8.89-7.985,27.822-7.985C85.734,27.709,98.376,27.435,106.296,30.782z"/>
	<path fill="#F48120" d="M32.585,55.32c0-21.673,36.576-39.242,81.695-39.242c40.708,0,74.456,14.302,80.668,33.016
		c0.083-0.712,0.125-1.428,0.125-2.149c0-22.913-42.566-41.486-95.073-41.486c-52.507,0-95.073,18.574-95.073,41.486
		c0,16.635,22.436,30.982,54.824,37.596C43.077,77.356,32.585,66.927,32.585,55.32z"/>
	<g>
		<g>
			<path fill="#fff" d="M42.871,70.134l2.346-0.216c0.096,0.277,0.23,0.475,0.402,0.594c0.172,0.119,0.402,0.178,0.689,0.178
				c0.314,0,0.557-0.067,0.729-0.201c0.134-0.1,0.201-0.224,0.201-0.374c0-0.169-0.088-0.299-0.263-0.391
				c-0.126-0.065-0.463-0.146-1.01-0.241c-0.817-0.142-1.385-0.274-1.702-0.395c-0.318-0.121-0.586-0.327-0.804-0.615
				c-0.218-0.289-0.326-0.618-0.326-0.988c0-0.404,0.118-0.753,0.353-1.045c0.235-0.293,0.559-0.511,0.972-0.656
				c0.413-0.144,0.967-0.217,1.661-0.217c0.733,0,1.274,0.057,1.623,0.169c0.349,0.112,0.641,0.287,0.874,0.523
				c0.233,0.236,0.427,0.556,0.582,0.959l-2.238,0.216c-0.058-0.196-0.153-0.341-0.287-0.433c-0.184-0.123-0.406-0.185-0.667-0.185
				c-0.265,0-0.457,0.047-0.578,0.141c-0.121,0.095-0.181,0.209-0.181,0.343c0,0.15,0.075,0.263,0.226,0.34
				c0.15,0.077,0.484,0.146,1.001,0.207c0.782,0.089,1.364,0.212,1.746,0.37c0.381,0.158,0.673,0.383,0.876,0.675
				c0.202,0.293,0.304,0.614,0.304,0.964c0,0.354-0.107,0.699-0.321,1.034c-0.214,0.335-0.552,0.601-1.012,0.8
				c-0.461,0.198-1.088,0.297-1.882,0.297c-1.122,0-1.921-0.161-2.397-0.482C43.312,71.182,43.006,70.726,42.871,70.134z"/>
			<path fill="#fff" d="M53.131,63.358v2.346h1.297v1.728h-1.297v2.172c0,0.261,0.025,0.434,0.075,0.519
				c0.078,0.131,0.213,0.196,0.407,0.196c0.174,0,0.418-0.05,0.732-0.15l0.175,1.625c-0.584,0.127-1.129,0.191-1.635,0.191
				c-0.588,0-1.021-0.075-1.299-0.225c-0.278-0.15-0.484-0.378-0.618-0.684c-0.133-0.306-0.2-0.802-0.2-1.487v-2.158h-0.864v-1.728
				h0.864v-1.133L53.131,63.358z"/>
			<path fill="#fff" d="M61.798,71.847h-2.205v-0.994c-0.328,0.409-0.658,0.7-0.991,0.873c-0.333,0.173-0.742,0.26-1.227,0.26
				c-0.647,0-1.155-0.194-1.523-0.581c-0.368-0.387-0.552-0.984-0.552-1.79v-3.91h2.361v3.38c0,0.386,0.071,0.66,0.214,0.822
				c0.142,0.162,0.342,0.243,0.601,0.243c0.281,0,0.512-0.108,0.691-0.324c0.179-0.216,0.269-0.604,0.269-1.164v-2.958h2.361V71.847
				z"/>
			<path fill="#fff" d="M69.451,63.358v8.488h-2.203v-0.911c-0.309,0.387-0.591,0.647-0.845,0.783
				c-0.339,0.178-0.717,0.267-1.133,0.267c-0.837,0-1.476-0.318-1.917-0.954c-0.441-0.636-0.662-1.41-0.662-2.32
				c0-1.018,0.244-1.797,0.731-2.336c0.488-0.54,1.107-0.81,1.86-0.81c0.366,0,0.698,0.062,0.997,0.185
				c0.298,0.124,0.563,0.309,0.795,0.555v-2.948H69.451z M67.091,68.756c0-0.481-0.102-0.84-0.305-1.076
				c-0.203-0.236-0.461-0.355-0.772-0.355c-0.273,0-0.501,0.114-0.685,0.34c-0.184,0.228-0.276,0.608-0.276,1.143
				c0,0.501,0.095,0.867,0.285,1.1c0.19,0.233,0.425,0.349,0.706,0.349c0.3,0,0.549-0.117,0.749-0.352
				C66.992,69.67,67.091,69.288,67.091,68.756z"/>
			<path fill="#fff" d="M77.475,69.347h-4.723c0.043,0.38,0.144,0.663,0.307,0.849c0.227,0.268,0.525,0.401,0.891,0.401
				c0.231,0,0.451-0.059,0.66-0.176c0.127-0.074,0.264-0.206,0.411-0.394l2.315,0.216c-0.354,0.622-0.782,1.069-1.283,1.339
				c-0.501,0.27-1.219,0.405-2.156,0.405c-0.813,0-1.453-0.115-1.919-0.345c-0.466-0.229-0.853-0.593-1.158-1.093
				c-0.307-0.5-0.46-1.087-0.46-1.761c0-0.96,0.307-1.737,0.922-2.331c0.615-0.593,1.464-0.891,2.548-0.891
				c0.879,0,1.573,0.132,2.082,0.398c0.509,0.265,0.897,0.65,1.163,1.153c0.266,0.504,0.399,1.158,0.399,1.965V69.347z
				 M75.083,68.22c-0.046-0.453-0.169-0.777-0.368-0.972c-0.2-0.195-0.461-0.293-0.786-0.293c-0.375,0-0.675,0.147-0.898,0.442
				c-0.143,0.184-0.234,0.459-0.273,0.823H75.083z"/>
			<path fill="#fff" d="M78.322,65.704h2.199v1.005c0.328-0.41,0.659-0.704,0.994-0.879c0.336-0.177,0.744-0.265,1.225-0.265
				c0.651,0,1.16,0.194,1.529,0.582c0.368,0.387,0.552,0.986,0.552,1.796v3.904h-2.361v-3.373c0-0.385-0.072-0.657-0.214-0.817
				c-0.143-0.16-0.343-0.24-0.601-0.24c-0.285,0-0.517,0.108-0.694,0.323c-0.178,0.216-0.266,0.603-0.266,1.162v2.945h-2.361V65.704
				z"/>
			<path fill="#fff" d="M88.831,63.358v2.346h1.296v1.728h-1.296v2.172c0,0.261,0.025,0.434,0.075,0.519
				c0.078,0.131,0.213,0.196,0.407,0.196c0.175,0,0.419-0.05,0.732-0.15l0.175,1.625c-0.584,0.127-1.129,0.191-1.635,0.191
				c-0.587,0-1.02-0.075-1.299-0.225c-0.278-0.15-0.484-0.378-0.617-0.684c-0.133-0.306-0.2-0.802-0.2-1.487v-2.158h-0.864v-1.728
				h0.864v-1.133L88.831,63.358z"/>
		</g>
		<g>
			<path fill="#fff" d="M100.06,65.676h2.209v5.806l0.005,0.272c0,0.386-0.082,0.753-0.246,1.103
				c-0.164,0.348-0.382,0.631-0.654,0.848c-0.272,0.216-0.617,0.372-1.036,0.469c-0.419,0.096-0.899,0.144-1.439,0.144
				c-1.235,0-2.083-0.186-2.544-0.557c-0.462-0.372-0.692-0.869-0.692-1.491c0-0.078,0.004-0.182,0.012-0.313l2.288,0.263
				c0.058,0.211,0.146,0.357,0.266,0.438c0.173,0.119,0.391,0.18,0.653,0.18c0.339,0,0.592-0.091,0.759-0.271
				c0.167-0.181,0.252-0.495,0.252-0.944v-0.926c-0.232,0.271-0.463,0.467-0.695,0.588c-0.363,0.191-0.754,0.287-1.175,0.287
				c-0.822,0-1.486-0.359-1.991-1.076c-0.359-0.51-0.538-1.182-0.538-2.019c0-0.957,0.231-1.685,0.695-2.187
				c0.463-0.501,1.069-0.752,1.818-0.752c0.479,0,0.873,0.081,1.184,0.243c0.311,0.163,0.601,0.432,0.871,0.807V65.676z
				 M97.839,68.668c0,0.446,0.095,0.776,0.285,0.991c0.189,0.215,0.439,0.323,0.748,0.323c0.293,0,0.54-0.112,0.739-0.335
				c0.199-0.223,0.298-0.558,0.298-1.008c0-0.45-0.105-0.793-0.313-1.032c-0.21-0.238-0.464-0.357-0.766-0.357
				c-0.301,0-0.542,0.109-0.722,0.328C97.929,67.797,97.839,68.161,97.839,68.668z"/>
			<path fill="#fff" d="M103.162,68.765c0-0.938,0.317-1.709,0.95-2.317c0.634-0.607,1.49-0.91,2.567-0.91
				c1.232,0,2.163,0.356,2.793,1.069c0.506,0.575,0.759,1.282,0.759,2.123c0,0.944-0.314,1.719-0.941,2.322
				c-0.628,0.604-1.496,0.905-2.604,0.905c-0.989,0-1.788-0.251-2.399-0.752C103.536,70.585,103.162,69.771,103.162,68.765z
				 M105.524,68.76c0,0.547,0.111,0.952,0.335,1.214c0.223,0.262,0.503,0.394,0.841,0.394c0.342,0,0.622-0.129,0.841-0.388
				c0.219-0.259,0.329-0.673,0.329-1.243c0-0.532-0.111-0.928-0.332-1.189c-0.222-0.26-0.495-0.39-0.821-0.39
				c-0.345,0-0.631,0.132-0.856,0.396C105.636,67.818,105.524,68.22,105.524,68.76z"/>
			<path fill="#fff" d="M110.025,65.676h2.452l1.198,3.892l1.242-3.892h2.377l-2.616,6.143h-2.092L110.025,65.676z"/>
			<path fill="#fff" d="M124.238,69.319h-4.723c0.043,0.38,0.145,0.663,0.307,0.849c0.227,0.267,0.524,0.401,0.891,0.401
				c0.231,0,0.451-0.059,0.66-0.176c0.127-0.075,0.264-0.206,0.411-0.395l2.315,0.216c-0.355,0.622-0.782,1.068-1.284,1.339
				c-0.501,0.27-1.22,0.405-2.155,0.405c-0.813,0-1.453-0.115-1.92-0.344c-0.466-0.23-0.853-0.594-1.158-1.093
				c-0.307-0.5-0.459-1.087-0.459-1.761c0-0.96,0.307-1.737,0.922-2.331c0.615-0.593,1.464-0.89,2.548-0.89
				c0.879,0,1.573,0.132,2.082,0.397c0.509,0.266,0.897,0.65,1.164,1.153c0.266,0.503,0.399,1.158,0.399,1.966V69.319z
				 M121.846,68.192c-0.046-0.452-0.17-0.776-0.369-0.972c-0.199-0.196-0.461-0.293-0.785-0.293c-0.375,0-0.675,0.148-0.899,0.443
				c-0.142,0.184-0.233,0.458-0.272,0.823H121.846z"/>
			<path fill="#fff" d="M125.115,65.676h2.2v1.012c0.212-0.438,0.431-0.739,0.656-0.903c0.226-0.165,0.505-0.247,0.836-0.247
				c0.346,0,0.727,0.108,1.14,0.325l-0.729,1.684c-0.278-0.115-0.498-0.173-0.659-0.173c-0.309,0-0.548,0.127-0.718,0.381
				c-0.243,0.358-0.364,1.027-0.364,2.008v2.056h-2.362V65.676z"/>
			<path fill="#fff" d="M130.699,65.676h2.199v1.005c0.327-0.41,0.658-0.703,0.993-0.879c0.335-0.176,0.744-0.264,1.226-0.264
				c0.651,0,1.16,0.193,1.528,0.581c0.368,0.387,0.552,0.987,0.552,1.796v3.905h-2.361v-3.373c0-0.385-0.072-0.657-0.214-0.817
				c-0.143-0.16-0.343-0.239-0.601-0.239c-0.286,0-0.516,0.108-0.693,0.323c-0.178,0.216-0.266,0.603-0.266,1.161v2.945h-2.361
				V65.676z"/>
			<path fill="#fff" d="M138.383,65.676h2.199v0.898c0.316-0.374,0.636-0.641,0.958-0.799c0.322-0.158,0.711-0.237,1.166-0.237
				c0.49,0,0.877,0.087,1.163,0.26c0.285,0.174,0.519,0.433,0.7,0.776c0.369-0.401,0.706-0.675,1.01-0.82
				c0.304-0.145,0.679-0.216,1.126-0.216c0.658,0,1.172,0.196,1.541,0.587c0.37,0.391,0.554,1.004,0.554,1.836v3.858h-2.361v-3.506
				c0-0.278-0.054-0.485-0.161-0.62c-0.157-0.212-0.352-0.319-0.585-0.319c-0.277,0-0.499,0.1-0.668,0.301
				c-0.169,0.201-0.252,0.524-0.252,0.968v3.176h-2.362v-3.382c0-0.269-0.015-0.452-0.046-0.549c-0.05-0.155-0.137-0.279-0.26-0.373
				c-0.124-0.094-0.268-0.141-0.434-0.141c-0.27,0-0.492,0.102-0.666,0.307c-0.173,0.204-0.26,0.54-0.26,1.005v3.133h-2.361V65.676z
				"/>
			<path fill="#fff" d="M156.806,69.319h-4.723c0.042,0.38,0.145,0.663,0.307,0.849c0.227,0.267,0.524,0.401,0.891,0.401
				c0.231,0,0.451-0.059,0.659-0.176c0.128-0.075,0.264-0.206,0.411-0.395l2.315,0.216c-0.355,0.622-0.782,1.068-1.284,1.339
				c-0.501,0.27-1.22,0.405-2.155,0.405c-0.813,0-1.453-0.115-1.92-0.344c-0.466-0.23-0.852-0.594-1.158-1.093
				c-0.307-0.5-0.459-1.087-0.459-1.761c0-0.96,0.307-1.737,0.922-2.331c0.615-0.593,1.464-0.89,2.548-0.89
				c0.879,0,1.573,0.132,2.082,0.397c0.509,0.266,0.897,0.65,1.163,1.153c0.266,0.503,0.399,1.158,0.399,1.966V69.319z
				 M154.414,68.192c-0.046-0.452-0.17-0.776-0.368-0.972c-0.2-0.196-0.461-0.293-0.785-0.293c-0.375,0-0.675,0.148-0.899,0.443
				c-0.143,0.184-0.233,0.458-0.272,0.823H154.414z"/>
			<path fill="#fff" d="M157.654,65.676h2.198v1.005c0.328-0.41,0.659-0.703,0.993-0.879c0.336-0.176,0.744-0.264,1.225-0.264
				c0.651,0,1.16,0.193,1.529,0.581c0.368,0.387,0.552,0.987,0.552,1.796v3.905h-2.361v-3.373c0-0.385-0.072-0.657-0.214-0.817
				c-0.143-0.16-0.343-0.239-0.601-0.239c-0.286,0-0.517,0.108-0.694,0.323c-0.178,0.216-0.266,0.603-0.266,1.161v2.945h-2.361
				V65.676z"/>
			<path fill="#fff" d="M168.162,63.33v2.346h1.296v1.729h-1.296v2.172c0,0.261,0.025,0.434,0.076,0.519
				c0.078,0.13,0.213,0.196,0.406,0.196c0.175,0,0.419-0.05,0.732-0.15l0.174,1.626c-0.584,0.127-1.129,0.191-1.634,0.191
				c-0.587,0-1.02-0.075-1.299-0.225c-0.278-0.15-0.483-0.378-0.618-0.683c-0.133-0.306-0.199-0.802-0.199-1.487v-2.158h-0.864
				v-1.729h0.864v-1.132L168.162,63.33z"/>
		</g>
	</g>
	<g>
		<g>
			<path fill="#fff" d="M26.359,33.801c0.395,0.457,0.58,0.63,1.21,0.728v0.284c-0.37-0.012-0.741-0.037-1.111-0.049
				c-0.309,0.012-0.617,0.037-0.926,0.049l-0.58-0.716l-2.05-2.543c-0.407-0.469-0.358-0.544-1.012-0.544v1.457
				c0,0.395,0,1.309,0.111,1.642c0.148,0.432,0.654,0.42,1.049,0.42v0.284c-0.568-0.012-1.148-0.037-1.741-0.049
				c-0.617,0.012-1.235,0.037-1.852,0.049V34.53c0.395,0,0.913,0,1.049-0.42c0.111-0.333,0.111-1.247,0.111-1.642v-3.482
				c0-0.395,0-1.309-0.111-1.642c-0.136-0.432-0.654-0.42-1.049-0.42V26.64c0.704,0.012,1.42,0.037,2.124,0.049
				c0.518-0.012,1.05-0.037,1.568-0.049c1.408,0,2.828,0.321,2.828,2.037c0,1.333-1.012,2.013-2.235,2.123L26.359,33.801z
				 M21.89,30.677c1.543,0,2.667-0.037,2.667-1.828c0-1.086-0.617-1.852-1.729-1.852c-0.148,0-0.691-0.037-0.803,0.013
				c-0.16,0.074-0.136,0.309-0.136,0.445V30.677z"/>
		</g>
		<g>
			<path fill="#fff" d="M31.46,28.895c0-0.395,0-1.309-0.123-1.642c-0.161-0.419-0.667-0.419-1.062-0.419v-0.284
				c0.593,0.012,1.185,0.037,1.778,0.049c0.63-0.012,1.247-0.037,1.865-0.049v0.284c-0.395,0-0.901,0-1.062,0.419
				c-0.123,0.333-0.123,1.247-0.123,1.642v3.482c0,0.395,0,1.309,0.123,1.642c0.16,0.42,0.667,0.42,1.062,0.42v0.284
				c-0.58-0.012-1.185-0.037-1.778-0.049c-0.618,0.012-1.247,0.037-1.865,0.049v-0.284c0.395,0,0.901,0,1.062-0.42
				c0.123-0.333,0.123-1.247,0.123-1.642V28.895z"/>
		</g>
		<g>
			<path fill="#fff" d="M45.019,28.475h-0.333c-0.074-1.21-0.543-1.531-1.704-1.531c-0.457,0-1.198-0.062-1.198,0.333v5.853
				c0,0.914,0.173,1.259,1.371,1.309v0.284c-0.679-0.012-1.371-0.037-2.05-0.049c-0.655,0.012-1.297,0.037-1.963,0.049v-0.284
				c1.198-0.049,1.371-0.395,1.371-1.309v-5.853c0-0.371-0.543-0.333-1.037-0.333c-1.223,0-1.815,0.062-1.864,1.531h-0.284v-1.926
				h7.581L45.019,28.475z"/>
		</g>
		<circle fill="#fff" cx="28.36" cy="30.23" r="0.587"/>
		<circle fill="#fff" cx="35.736" cy="30.272" r="0.587"/>
	</g>
</g>
</svg>
